<?xml version="1.0" standalone="no"?><!DOCTYPE svg PUBLIC "-//W3C//DTD SVG 1.1//EN" "http://www.w3.org/Graphics/SVG/1.1/DTD/svg11.dtd"><svg t="1671795864838" class="icon" viewBox="0 0 1024 1024" version="1.1" xmlns="http://www.w3.org/2000/svg" p-id="8943" xmlns:xlink="http://www.w3.org/1999/xlink" width="16" height="16"><path d="M261.12 460.288c-35.328 0-64-28.672-64-64S225.792 332.288 261.12 332.288s64 28.672 64 64S296.448 460.288 261.12 460.288z m0-87.04c-12.8 0-23.04 10.24-23.04 23.04s10.24 23.04 23.04 23.04 23.04-10.24 23.04-23.04-10.24-23.04-23.04-23.04z" fill="#EB4446" p-id="8944"></path><path d="M355.328 559.104H167.424L73.728 396.288l93.696-162.816h187.904l93.696 162.816-93.696 162.816z m-164.352-40.96h140.288l70.144-121.856-69.632-121.856H190.976L120.832 396.288l70.144 121.856zM879.616 396.288l-338.944-195.072 34.304-59.392c10.752-18.944 28.672-32.768 49.664-38.4 20.992-5.632 43.52-2.56 62.464 8.192L954.88 266.24l-75.264 130.048z m-282.624-209.92l267.776 154.112 34.304-59.392-231.936-133.632c-9.728-5.632-20.48-7.168-31.232-4.096-10.752 3.072-19.456 9.728-25.088 18.944l-13.824 24.064z" fill="#333333" p-id="8945"></path><path d="M737.28 529.408l-23.04 39.936-45.568-8.704-174.08-33.28-68.096-13.312 23.04-40.448 166.912 32.768 75.264 14.336zM686.592 616.96l-23.04 40.448-45.568-9.216-196.608-37.888-45.568-8.704 23.04-39.936 45.568 8.704 197.12 37.888z" fill="#EB4446" p-id="8946"></path><path d="M796.672 342.528l-56.32 93.696-198.656-35.328 90.112-153.088-42.496-17.92-116.224 202.752 290.304 51.2 67.072-116.224-33.792-25.088zM426.496 894.464l-164.864-95.232 88.064-152.576 290.304 51.712-94.72 164.352c-24.064 41.472-77.312 55.808-118.784 31.744zM321.536 783.36l126.976 73.216c20.48 11.776 47.104 4.608 58.88-15.872l63.488-110.592-198.656-35.328-50.688 88.576z" fill="#333333" p-id="8947"></path><path d="M819.2 880.64H430.08v-266.24c0-33.792 27.648-61.44 61.44-61.44h389.12v266.24c0 33.792-27.648 61.44-61.44 61.44z" fill="#333333" opacity=".18" p-id="8948"></path></svg>